<svg id="Layer_1" data-name="Layer 1" xmlns="http://www.w3.org/2000/svg" viewBox="0 0 163.3 167.85"><defs><style>.cls-1,.cls-2{fill:#595a5c;}.cls-1{stroke:#595a5c;stroke-miterlimit:10;stroke-width:3px;}</style></defs><title>Halcyon-Sales-icons-03.14.19</title><path class="cls-1" d="M81.86,163.05a79.22,79.22,0,1,0-79-79.22A79.22,79.22,0,0,0,81.86,163.05Zm0-152.23A73,73,0,1,1,9,83.83,73,73,0,0,1,81.86,10.82Z"/><path class="cls-2" d="M82,108.57c-4.68,0-6.79-2.29-6.88-7.45l0-3.05H54.39l0,3.13c.12,13.59,6.77,23,18.37,26.09v9.29H90.7v-9.19c11.39-3.11,18.6-12.48,18.6-24.5,0-16.17-11.89-23.14-21.46-28.73-6-3.54-11.25-6.6-11.25-10.76,0-3.66,2.86-4.42,5.27-4.42,2.71,0,5.51.76,5.62,6.42l.06,3h20.65l0-3.14C108,52.63,101.57,43.5,90.7,40.4V31.08H72.78v9.36C62.38,43.55,56,52,56,63.05c0,15.31,11.49,22.34,20.72,28C83,94.88,88.4,98.18,88.4,102.77,88.4,106.62,86.24,108.57,82,108.57ZM80,85.75c-8.73-5.34-17.76-10.87-17.76-22.7,0-8.9,5.34-15.31,14.28-17.15L79,45.39v-8.1h5.5v8.14l2.53.48c8.57,1.61,13.72,7.36,14.74,16.33H93.4c-1.13-6-5.28-9.48-11.54-9.48C75,52.76,70.37,57,70.37,63.4c0,7.72,7,11.8,14.33,16.11,9,5.3,18.39,10.77,18.39,23.38,0,9.9-6.15,17.17-16,19l-2.55.46v8.05H79V122.2l-2.55-.46c-9.14-1.66-14.62-7.81-15.64-17.46h8.36c1.15,6.64,5.77,10.5,12.81,10.5,7.68,0,12.64-4.71,12.64-12C94.61,94.7,87.5,90.36,80,85.75Z"/></svg>